<svg id="Layer_1" data-name="Layer 1" xmlns="http://www.w3.org/2000/svg" viewBox="0 0 3300 2200"><defs><style>.cls-1{fill:#fff;}.cls-11,.cls-12,.cls-2{fill:none;}.cls-12,.cls-2{stroke:#000;}.cls-2{stroke-width:0.5px;}.cls-3,.cls-6,.cls-7{isolation:isolate;}.cls-3,.cls-6{font-size:12px;}.cls-3{font-family:Arial-BoldMT, Arial;font-weight:700;}.cls-4{letter-spacing:-0.02em;}.cls-5{letter-spacing:-0.06em;}.cls-6{font-family:ArialMT, Arial;}.cls-7{fill:#00aeef;opacity:0.4;}.cls-8{letter-spacing:-0.11em;}.cls-9{letter-spacing:-0.07em;}.cls-10{fill:#27aae1;}.cls-11{stroke:#27aae1;stroke-width:0.58px;}.cls-12{stroke-miterlimit:10;stroke-width:9px;}</style></defs><g id="Notes"><rect id="artboard" class="cls-1" width="3300" height="2200"/><line class="cls-2" x1="263" y1="292" x2="3036" y2="292"/><text class="cls-3" transform="translate(263 322)"><tspan class="cls-4">W</tspan><tspan x="11.11" y="0">eight/Scale </tspan><tspan class="cls-5" x="77.8" y="0">V</tspan><tspan x="85.14" y="0">ariations</tspan></text><text class="cls-6" transform="translate(536.04 322)">Ultralight</text><text class="cls-6" transform="translate(844.75 322)">Thin</text><text class="cls-6" transform="translate(1140.12 322)">Light</text><text class="cls-6" transform="translate(1428.83 322)">Regular</text><text class="cls-6" transform="translate(1725.22 322)">Medium</text><text class="cls-6" transform="translate(2018.26 322)">Semibold</text><text class="cls-6" transform="translate(2327.97 322)">Bold</text><text class="cls-6" transform="translate(2619.68 322)">Heavy</text><text class="cls-6" transform="translate(2918.73 322)">Black</text><line class="cls-2" x1="263" y1="1903" x2="3036" y2="1903"/><path d="M272.25,1933.83a7.88,7.88,0,1,0-7.88-7.88A7.95,7.95,0,0,0,272.25,1933.83Zm0-1.48a6.4,6.4,0,1,1,6.39-6.4A6.36,6.36,0,0,1,272.25,1932.35Zm0-2.78c.47,0,.74-.31.74-.83v-2.06h2.23c.5,0,.84-.25.84-.72s-.33-.74-.84-.74H273V1923c0-.52-.27-.84-.74-.84s-.72.34-.72.84v2.23H269.3c-.52,0-.85.26-.85.74s.35.72.85.72h2.21v2.06C271.51,1929.24,271.76,1929.57,272.23,1929.57Z"/><path d="M293.22,1935.91a10,10,0,1,0-10-10A10,10,0,0,0,293.22,1935.91Zm0-1.66a8.3,8.3,0,1,1,8.3-8.3A8.27,8.27,0,0,1,293.22,1934.25Zm0-3.66a.82.82,0,0,0,.83-.93v-2.89h3.05c.55,0,.93-.28.93-.8s-.36-.83-.93-.83H294v-3.07a.83.83,0,1,0-1.65,0v3.07h-3c-.57,0-.94.3-.94.83s.39.8.94.8h3v2.89A.82.82,0,0,0,293.2,1930.59Z"/><path d="M319.89,1938.67A12.72,12.72,0,1,0,307.18,1926,12.8,12.8,0,0,0,319.89,1938.67Zm0-1.81a10.9,10.9,0,1,1,10.9-10.9A10.87,10.87,0,0,1,319.89,1936.86Zm0-4.92a.9.9,0,0,0,.91-1v-4.07H325a.91.91,0,1,0,0-1.81h-4.24v-4.25a.89.89,0,0,0-.91-1,.88.88,0,0,0-.89,1v4.25h-4.23a.91.91,0,1,0,0,1.81H319v4.07A.88.88,0,0,0,319.88,1931.94Z"/><text class="cls-3" transform="translate(263 1953)">Design <tspan class="cls-5" x="43.34" y="0">V</tspan><tspan x="50.68" y="0">ariations</tspan></text><text class="cls-6" transform="translate(263 1971)">Symbols are supported in up to nine weights and three scales.</text><text class="cls-6" transform="translate(263 1989)">For optimal layout with text and other symbols, vertically align</text><text class="cls-6" transform="translate(263 2007)">symbols with the adjacent text.</text><rect class="cls-7" x="776" y="1919" width="3" height="14"/><path d="M789.53,1933h1.84l-5.19-14.09h-1.74l-5.2,14.09h1.85l1.42-4h5.6Zm-4.25-12h.06l2.25,6.42H783Z"/><rect class="cls-7" x="791.62" y="1919" width="3" height="14"/><text class="cls-3" transform="translate(776 1953)">Margins</text><text class="cls-6" transform="translate(776 1971)">Leading and trailing margins on the left and right side of each symbol</text><text class="cls-6" transform="translate(776 1989)">can be adjusted by modifying the width of the blue rectangles.</text><text class="cls-6" transform="translate(776 2007)">Modifications are automatically applied proportionally to all</text><text class="cls-6" transform="translate(776 2025)">scales and weights.</text><path d="M1291.83,1936.12l1.55,1.54a1.68,1.68,0,0,0,2.68-.2l10.22-11.12a1.54,1.54,0,0,0,1.28.19l1-.22.69.69,0,.52a1.64,1.64,0,0,0,.6,1.45l.81.81a1.1,1.1,0,0,0,1.64.06l3.25-3.26a1.09,1.09,0,0,0,0-1.64l-.82-.82a1.55,1.55,0,0,0-1.44-.59l-.53.06-.65-.67.28-1.14a1.55,1.55,0,0,0-.63-1.64l-2.41-2.39c-3.54-3.53-8.07-3.42-11.19-.29a1.16,1.16,0,0,0-.19,1.45,1.17,1.17,0,0,0,1.35.43,5.33,5.33,0,0,1,4.52.74l-.63,1.58a1.72,1.72,0,0,0,0,1.51L1292,1933.44A1.68,1.68,0,0,0,1291.83,1936.12Zm7.84-18.27a6.17,6.17,0,0,1,8.38.74l2.63,2.6a.69.69,0,0,1,.2.72l-.38,1.56,1.58,1.57,1-.09a.56.56,0,0,1,.6.22l.62.62-2.75,2.75-.63-.62a.57.57,0,0,1-.21-.6l.09-1-1.56-1.56-1.63.31a.56.56,0,0,1-.66-.19l-2.18-2.17a.53.53,0,0,1-.12-.7l.94-2.27a5.8,5.8,0,0,0-5.75-1.73c-.09,0-.16,0-.18,0S1299.59,1917.92,1299.67,1917.85Zm-6.57,17.56c-.49-.5-.31-.8,0-1.1l11-10.12,1.23,1.23-10.16,10.93a.67.67,0,0,1-1.08,0Z"/><text class="cls-3" transform="translate(1289 1953)">Exporting</text><text class="cls-6" transform="translate(1289 1971)">Symbols should be outlined when exporting to ensure the</text><text class="cls-6" transform="translate(1289 1989)">design is preserved when submitting to Xcode.</text><text id="template-version" class="cls-6" transform="translate(2958.85 1933)"><tspan class="cls-8">T</tspan><tspan x="6" y="0">emplate </tspan><tspan class="cls-9" x="52.03" y="0">v</tspan><tspan x="57.13" y="0">.1.0</tspan></text><text class="cls-6" transform="translate(2851.24 1951)">Generated from square.grid.3x2.fill</text><text class="cls-6" transform="translate(2921.92 1969)"><tspan class="cls-5">T</tspan><tspan x="6.67" y="0">ypeset at 100 points</tspan></text><text class="cls-6" transform="translate(263 726)">Small</text><text class="cls-6" transform="translate(263 1156)">Medium</text><text class="cls-6" transform="translate(263 1586)">Large</text></g><g id="Guides"><g id="H-reference"><path class="cls-10" d="M393.93,696h2.74l-27.1-70.46h-2.49L340,696h2.68l9.28-24.46H384.7ZM368.2,628.91h.24l15.38,40.38h-31Z"/></g><line id="Baseline-S" class="cls-11" x1="263" y1="696" x2="3036" y2="696"/><line id="Capline-S" class="cls-11" x1="263" y1="625.54" x2="3036" y2="625.54"/><g id="H-reference-2" data-name="H-reference"><path class="cls-10" d="M393.93,1126h2.74l-27.1-70.46h-2.49L340,1126h2.68l9.28-24.46H384.7Zm-25.73-67.09h.24l15.38,40.38h-31Z"/></g><line id="Baseline-M" class="cls-11" x1="263" y1="1126" x2="3036" y2="1126"/><line id="Capline-M" class="cls-11" x1="263" y1="1055.54" x2="3036" y2="1055.54"/><g id="H-reference-3" data-name="H-reference"><path class="cls-10" d="M393.93,1556h2.74l-27.1-70.46h-2.49L340,1556h2.68l9.28-24.46H384.7Zm-25.73-67.09h.24l15.38,40.38h-31Z"/></g><line id="Baseline-L" class="cls-11" x1="263" y1="1556" x2="3036" y2="1556"/><line id="Capline-L" class="cls-11" x1="263" y1="1485.54" x2="3036" y2="1485.54"/><rect id="left-margin" class="cls-7" x="1367.94" y="1030.79" width="12.45" height="119.34"/><rect id="right-margin" class="cls-7" x="1519.3" y="1030.79" width="12.45" height="119.34"/></g><g id="Symbols"><g id="Black-L"><path d="M2857.79,1516.89h20c12.89,0,18.9-6,18.9-19v-19.87c0-13-6-19-18.9-19h-20c-12.94,0-18.9,6-18.9,19v19.87C2838.89,1510.93,2844.85,1516.89,2857.79,1516.89Zm65.58,0h20.07c12.89,0,18.89-6,18.89-19v-19.87c0-13-6-19-18.89-19h-20.07c-12.89,0-18.85,6-18.85,19v19.87C2904.52,1510.93,2910.48,1516.89,2923.37,1516.89Zm65.62,0h20c12.94,0,18.9-6,18.9-19v-19.87c0-13-6-19-18.9-19h-20c-12.89,0-18.89,6-18.89,19v19.87C2970.1,1510.93,2976.1,1516.89,2989,1516.89Zm-131.2,65.62h20c12.89,0,18.9-6,18.9-19V1543.7c0-13-6-19-18.9-19h-20c-12.94,0-18.9,6-18.9,19v19.82C2838.89,1576.51,2844.85,1582.51,2857.79,1582.51Zm65.58,0h20.07c12.89,0,18.89-6,18.89-19V1543.7c0-13-6-19-18.89-19h-20.07c-12.89,0-18.85,6-18.85,19v19.82C2904.52,1576.51,2910.48,1582.51,2923.37,1582.51Zm65.62,0h20c12.94,0,18.9-6,18.9-19V1543.7c0-13-6-19-18.9-19h-20c-12.89,0-18.89,6-18.89,19v19.82C2970.1,1576.51,2976.1,1582.51,2989,1582.51Z"/></g><g id="Heavy-L"><path d="M2560.61,1516.6h22.27c11.62,0,17.09-5.47,17.09-17.19v-22.07c0-11.77-5.47-17.19-17.09-17.19h-22.27c-11.62,0-17.09,5.42-17.09,17.19v22.07C2543.52,1511.13,2549,1516.6,2560.61,1516.6Zm64.95,0h22.26c11.62,0,17.09-5.47,17.09-17.19v-22.07c0-11.77-5.47-17.19-17.09-17.19h-22.26c-11.63,0-17.09,5.42-17.09,17.19v22.07C2608.47,1511.13,2613.93,1516.6,2625.56,1516.6Zm64.89,0h22.31c11.62,0,17.09-5.47,17.09-17.19v-22.07c0-11.77-5.47-17.19-17.09-17.19h-22.31c-11.62,0-17.09,5.42-17.09,17.19v22.07C2673.36,1511.13,2678.83,1516.6,2690.45,1516.6Zm-129.84,64.89h22.27c11.62,0,17.09-5.42,17.09-17.19v-22.07c0-11.72-5.47-17.19-17.09-17.19h-22.27c-11.62,0-17.09,5.47-17.09,17.19v22.07C2543.52,1576.07,2549,1581.49,2560.61,1581.49Zm64.95,0h22.26c11.62,0,17.09-5.42,17.09-17.19v-22.07c0-11.72-5.47-17.19-17.09-17.19h-22.26c-11.63,0-17.09,5.47-17.09,17.19v22.07C2608.47,1576.07,2613.93,1581.49,2625.56,1581.49Zm64.89,0h22.31c11.62,0,17.09-5.42,17.09-17.19v-22.07c0-11.72-5.47-17.19-17.09-17.19h-22.31c-11.62,0-17.09,5.47-17.09,17.19v22.07C2673.36,1576.07,2678.83,1581.49,2690.45,1581.49Z"/></g><g id="Bold-L"><path d="M2263.39,1516.21h24.86c10.15,0,15-4.84,15-15.19v-24.56c0-10.35-4.89-15.19-15-15.19h-24.86c-10.15,0-15,4.84-15,15.19V1501C2248.35,1511.37,2253.24,1516.21,2263.39,1516.21Zm64.21,0h24.81c10.15,0,15-4.84,15-15.19v-24.56c0-10.35-4.89-15.19-15-15.19H2327.6c-10.2,0-15.09,4.84-15.09,15.19V1501C2312.51,1511.37,2317.4,1516.21,2327.6,1516.21Zm64.16,0h24.81c10.15,0,15-4.84,15-15.19v-24.56c0-10.35-4.89-15.19-15-15.19h-24.81c-10.2,0-15.08,4.84-15.08,15.19V1501C2376.68,1511.37,2381.56,1516.21,2391.76,1516.21Zm-128.37,64.16h24.86c10.15,0,15-4.84,15-15.19v-24.51c0-10.4-4.89-15.24-15-15.24h-24.86c-10.15,0-15,4.84-15,15.24v24.51C2248.35,1575.53,2253.24,1580.37,2263.39,1580.37Zm64.21,0h24.81c10.15,0,15-4.84,15-15.19v-24.51c0-10.4-4.89-15.24-15-15.24H2327.6c-10.2,0-15.09,4.84-15.09,15.24v24.51C2312.51,1575.53,2317.4,1580.37,2327.6,1580.37Zm64.16,0h24.81c10.15,0,15-4.84,15-15.19v-24.51c0-10.4-4.89-15.24-15-15.24h-24.81c-10.2,0-15.08,4.84-15.08,15.24v24.51C2376.68,1575.53,2381.56,1580.37,2391.76,1580.37Z"/></g><g id="Semibold-L"><path d="M1966.37,1516h26.56c9.18,0,13.62-4.39,13.62-13.82v-26.27c0-9.42-4.44-13.82-13.62-13.82h-26.56c-9.18,0-13.68,4.4-13.68,13.82v26.27C1952.69,1511.57,1957.19,1516,1966.37,1516Zm63.62,0h26.56c9.18,0,13.67-4.39,13.67-13.82v-26.27c0-9.42-4.49-13.82-13.67-13.82H2030c-9.18,0-13.62,4.4-13.62,13.82v26.27C2016.37,1511.57,2020.81,1516,2030,1516Zm63.67,0h26.56c9.18,0,13.63-4.39,13.63-13.82v-26.27c0-9.42-4.45-13.82-13.63-13.82h-26.56c-9.18,0-13.67,4.4-13.67,13.82v26.27C2080,1511.57,2084.48,1516,2093.66,1516Zm-127.29,63.62h26.56c9.18,0,13.62-4.39,13.62-13.81v-26.23c0-9.42-4.44-13.81-13.62-13.81h-26.56c-9.18,0-13.68,4.39-13.68,13.81v26.23C1952.69,1575.19,1957.19,1579.58,1966.37,1579.58Zm63.62,0h26.56c9.18,0,13.67-4.39,13.67-13.81v-26.23c0-9.42-4.49-13.81-13.67-13.81H2030c-9.18,0-13.62,4.39-13.62,13.81v26.23C2016.37,1575.19,2020.81,1579.58,2030,1579.58Zm63.67,0h26.56c9.18,0,13.63-4.39,13.63-13.81v-26.23c0-9.42-4.45-13.81-13.63-13.81h-26.56c-9.18,0-13.67,4.39-13.67,13.81v26.23C2080,1575.19,2084.48,1579.58,2093.66,1579.58Z"/></g><g id="Medium-L"><path d="M1669.36,1515.77h27.88c8.45,0,12.6-4.11,12.6-12.8v-27.54c0-8.69-4.15-12.74-12.6-12.74h-27.88c-8.4,0-12.6,4-12.6,12.74V1503C1656.76,1511.66,1661,1515.77,1669.36,1515.77Zm63.23,0h27.93c8.4,0,12.6-4.11,12.6-12.8v-27.54c0-8.69-4.2-12.74-12.6-12.74h-27.93c-8.39,0-12.59,4-12.59,12.74V1503C1720,1511.66,1724.2,1515.77,1732.59,1515.77Zm63.29,0h27.88c8.39,0,12.59-4.11,12.59-12.8v-27.54c0-8.69-4.2-12.74-12.59-12.74h-27.88c-8.45,0-12.6,4-12.6,12.74V1503C1783.28,1511.66,1787.43,1515.77,1795.88,1515.77ZM1669.36,1579h27.88c8.45,0,12.6-4,12.6-12.79v-27.5c0-8.74-4.15-12.79-12.6-12.79h-27.88c-8.4,0-12.6,4-12.6,12.79v27.5C1656.76,1575,1661,1579,1669.36,1579Zm63.23,0h27.93c8.4,0,12.6-4,12.6-12.79v-27.5c0-8.74-4.2-12.79-12.6-12.79h-27.93c-8.39,0-12.59,4-12.59,12.79v27.5C1720,1575,1724.2,1579,1732.59,1579Zm63.29,0h27.88c8.39,0,12.59-4,12.59-12.79v-27.5c0-8.74-4.2-12.79-12.59-12.79h-27.88c-8.45,0-12.6,4-12.6,12.79v27.5C1783.28,1575,1787.43,1579,1795.88,1579Z"/></g><g id="Regular-L"><path d="M1372.3,1515.47h29.59c7.43,0,11.24-3.61,11.24-11.37v-29.25c0-7.77-3.81-11.38-11.24-11.38H1372.3c-7.42,0-11.23,3.61-11.23,11.38v29.25C1361.07,1511.86,1364.88,1515.47,1372.3,1515.47Zm62.75,0h29.59c7.42,0,11.23-3.61,11.23-11.37v-29.25c0-7.77-3.81-11.38-11.23-11.38h-29.59c-7.47,0-11.23,3.61-11.23,11.38v29.25C1423.82,1511.86,1427.58,1515.47,1435.05,1515.47Zm62.69,0h29.64c7.43,0,11.23-3.61,11.23-11.37v-29.25c0-7.77-3.8-11.38-11.23-11.38h-29.64c-7.42,0-11.18,3.61-11.18,11.38v29.25C1486.56,1511.86,1490.32,1515.47,1497.74,1515.47Zm-125.44,62.75h29.59c7.43,0,11.24-3.62,11.24-11.38v-29.25c0-7.76-3.81-11.42-11.24-11.42H1372.3c-7.42,0-11.23,3.66-11.23,11.42v29.25C1361.07,1574.6,1364.88,1578.22,1372.3,1578.22Zm62.75,0h29.59c7.42,0,11.23-3.62,11.23-11.38v-29.25c0-7.76-3.81-11.42-11.23-11.42h-29.59c-7.47,0-11.23,3.66-11.23,11.42v29.25C1423.82,1574.6,1427.58,1578.22,1435.05,1578.22Zm62.69,0h29.64c7.43,0,11.23-3.62,11.23-11.38v-29.25c0-7.76-3.8-11.42-11.23-11.42h-29.64c-7.42,0-11.18,3.66-11.18,11.42v29.25C1486.56,1574.6,1490.32,1578.22,1497.74,1578.22Z"/></g><g id="Light-L"><path d="M1075.64,1515.33h30.86c6.64,0,10.06-3.18,10.06-10.21v-30.61c0-7-3.42-10.21-10.06-10.21h-30.86c-6.64,0-10.11,3.17-10.11,10.21v30.61C1065.53,1512.15,1069,1515.33,1075.64,1515.33Zm62.06,0h30.86c6.64,0,10.11-3.18,10.11-10.21v-30.61c0-7-3.47-10.21-10.11-10.21H1137.7c-6.64,0-10.11,3.17-10.11,10.21v30.61C1127.59,1512.15,1131.06,1515.33,1137.7,1515.33Zm62.06,0h30.86c6.64,0,10.11-3.18,10.11-10.21v-30.61c0-7-3.47-10.21-10.11-10.21h-30.86c-6.64,0-10.1,3.17-10.1,10.21v30.61C1189.66,1512.15,1193.12,1515.33,1199.76,1515.33Zm-124.12,62.11h30.86c6.64,0,10.06-3.23,10.06-10.21v-30.66c0-7-3.42-10.21-10.06-10.21h-30.86c-6.64,0-10.11,3.18-10.11,10.21v30.66C1065.53,1574.21,1069,1577.44,1075.64,1577.44Zm62.06,0h30.86c6.64,0,10.11-3.23,10.11-10.21v-30.66c0-7-3.47-10.21-10.11-10.21H1137.7c-6.64,0-10.11,3.18-10.11,10.21v30.66C1127.59,1574.21,1131.06,1577.44,1137.7,1577.44Zm62.06,0h30.86c6.64,0,10.11-3.23,10.11-10.21v-30.66c0-7-3.47-10.21-10.11-10.21h-30.86c-6.64,0-10.1,3.18-10.1,10.21v30.66C1189.66,1574.21,1193.12,1577.44,1199.76,1577.44Z"/></g><g id="Thin-L"><path d="M779,1515.13h32.52c5.61,0,8.59-2.54,8.59-8.59v-32.47c0-6.06-3-8.65-8.59-8.65H779c-5.57,0-8.6,2.59-8.6,8.65v32.47C770.36,1512.59,773.39,1515.13,779,1515.13Zm61.18,0h32.57c5.56,0,8.59-2.54,8.59-8.59v-32.47c0-6.06-3-8.65-8.59-8.65H840.14c-5.57,0-8.6,2.59-8.6,8.65v32.47C831.54,1512.59,834.57,1515.13,840.14,1515.13Zm61.18,0h32.57c5.56,0,8.59-2.54,8.59-8.59v-32.47c0-6.06-3-8.65-8.59-8.65H901.32c-5.57,0-8.59,2.59-8.59,8.65v32.47C892.73,1512.59,895.75,1515.13,901.32,1515.13ZM779,1576.36h32.52c5.61,0,8.59-2.59,8.59-8.64v-32.47c0-6.06-3-8.64-8.59-8.64H779c-5.57,0-8.6,2.58-8.6,8.64v32.47C770.36,1573.77,773.39,1576.36,779,1576.36Zm61.18,0h32.57c5.56,0,8.59-2.59,8.59-8.64v-32.47c0-6.06-3-8.64-8.59-8.64H840.14c-5.57,0-8.6,2.58-8.6,8.64v32.47C831.54,1573.77,834.57,1576.36,840.14,1576.36Zm61.18,0h32.57c5.56,0,8.59-2.59,8.59-8.64v-32.47c0-6.06-3-8.64-8.59-8.64H901.32c-5.57,0-8.59,2.58-8.59,8.64v32.47C892.73,1573.77,895.75,1576.36,901.32,1576.36Z"/></g><g id="Ultralight-L"><path d="M482.25,1515h33.39c5.08,0,7.86-2.24,7.86-7.81v-33.4c0-5.56-2.78-7.81-7.86-7.81H482.25c-5,0-7.82,2.25-7.82,7.81v33.4C474.43,1512.79,477.22,1515,482.25,1515Zm60.74,0h33.4c5,0,7.86-2.24,7.86-7.81v-33.4c0-5.56-2.83-7.81-7.86-7.81H543c-5,0-7.82,2.25-7.82,7.81v33.4C535.17,1512.79,538,1515,543,1515Zm60.74,0h33.4c5,0,7.86-2.24,7.86-7.81v-33.4c0-5.56-2.83-7.81-7.86-7.81h-33.4c-5,0-7.81,2.25-7.81,7.81v33.4C595.92,1512.79,598.7,1515,603.73,1515Zm-121.48,60.75h33.39c5.08,0,7.86-2.25,7.86-7.82v-33.4c0-5.56-2.78-7.81-7.86-7.81H482.25c-5,0-7.82,2.25-7.82,7.81V1568C474.43,1573.53,477.22,1575.78,482.25,1575.78Zm60.74,0h33.4c5,0,7.86-2.25,7.86-7.82v-33.4c0-5.56-2.83-7.81-7.86-7.81H543c-5,0-7.82,2.25-7.82,7.81V1568C535.17,1573.53,538,1575.78,543,1575.78Zm60.74,0h33.4c5,0,7.86-2.25,7.86-7.82v-33.4c0-5.56-2.83-7.81-7.86-7.81h-33.4c-5,0-7.81,2.25-7.81,7.81V1568C595.92,1573.53,598.7,1575.78,603.73,1575.78Z"/></g><g id="Black-M"><path d="M2875.45,1088.16h13.13c11.33,0,16.45-5.18,16.45-16.51v-13.13c0-11.33-5.12-16.46-16.45-16.46h-13.13c-11.33,0-16.51,5.13-16.51,16.46v13.13C2858.94,1083,2864.12,1088.16,2875.45,1088.16Zm51.36,0H2940c11.32,0,16.5-5.18,16.5-16.51v-13.13c0-11.33-5.18-16.46-16.5-16.46h-13.14c-11.33,0-16.45,5.13-16.45,16.46v13.13C2910.36,1083,2915.48,1088.16,2926.81,1088.16Zm51.42,0h13.13c11.33,0,16.51-5.18,16.51-16.51v-13.13c0-11.33-5.18-16.46-16.51-16.46h-13.13c-11.33,0-16.51,5.13-16.51,16.46v13.13C2961.72,1083,2966.9,1088.16,2978.23,1088.16Zm-102.78,51.41h13.13c11.33,0,16.45-5.17,16.45-16.5v-13.13c0-11.33-5.12-16.51-16.45-16.51h-13.13c-11.33,0-16.51,5.18-16.51,16.51v13.13C2858.94,1134.4,2864.12,1139.57,2875.45,1139.57Zm51.36,0H2940c11.32,0,16.5-5.17,16.5-16.5v-13.13c0-11.33-5.18-16.51-16.5-16.51h-13.14c-11.33,0-16.45,5.18-16.45,16.51v13.13C2910.36,1134.4,2915.48,1139.57,2926.81,1139.57Zm51.42,0h13.13c11.33,0,16.51-5.17,16.51-16.5v-13.13c0-11.33-5.18-16.51-16.51-16.51h-13.13c-11.33,0-16.51,5.18-16.51,16.51v13.13C2961.72,1134.4,2966.9,1139.57,2978.23,1139.57Z"/></g><g id="Heavy-M"><path d="M2578.22,1087.82h15.28c10.11,0,14.79-4.64,14.79-14.85v-15.18c0-10.16-4.68-14.85-14.79-14.85h-15.28c-10.11,0-14.8,4.69-14.8,14.85V1073C2563.42,1083.18,2568.11,1087.82,2578.22,1087.82Zm50.83,0h15.28c10.11,0,14.79-4.64,14.79-14.85v-15.18c0-10.16-4.68-14.85-14.79-14.85h-15.28c-10.11,0-14.8,4.69-14.8,14.85V1073C2614.25,1083.18,2618.94,1087.82,2629.05,1087.82Zm50.83,0h15.28c10.11,0,14.79-4.64,14.79-14.85v-15.18c0-10.16-4.68-14.85-14.79-14.85h-15.28c-10.11,0-14.8,4.69-14.8,14.85V1073C2665.08,1083.18,2669.77,1087.82,2679.88,1087.82Zm-101.66,50.83h15.28c10.11,0,14.79-4.64,14.79-14.85v-15.18c0-10.16-4.68-14.85-14.79-14.85h-15.28c-10.11,0-14.8,4.69-14.8,14.85v15.18C2563.42,1134,2568.11,1138.65,2578.22,1138.65Zm50.83,0h15.28c10.11,0,14.79-4.64,14.79-14.85v-15.18c0-10.16-4.68-14.85-14.79-14.85h-15.28c-10.11,0-14.8,4.69-14.8,14.85v15.18C2614.25,1134,2618.94,1138.65,2629.05,1138.65Zm50.83,0h15.28c10.11,0,14.79-4.64,14.79-14.85v-15.18c0-10.16-4.68-14.85-14.79-14.85h-15.28c-10.11,0-14.8,4.69-14.8,14.85v15.18C2665.08,1134,2669.77,1138.65,2679.88,1138.65Z"/></g><g id="Bold-M"><path d="M2280.92,1087.47h17.73c8.74,0,12.89-4.15,12.89-13V1057c0-8.89-4.15-13-12.89-13h-17.73c-8.74,0-12.89,4.1-12.89,13v17.48C2268,1083.32,2272.18,1087.47,2280.92,1087.47Zm50.2,0h17.72c8.74,0,12.89-4.15,12.89-13V1057c0-8.89-4.15-13-12.89-13h-17.72c-8.74,0-12.89,4.1-12.89,13v17.48C2318.23,1083.32,2322.38,1087.47,2331.12,1087.47Zm50.24,0H2399c8.74,0,12.89-4.15,12.89-13V1057c0-8.89-4.15-13-12.89-13h-17.68c-8.79,0-12.94,4.1-12.94,13v17.48C2368.42,1083.32,2372.57,1087.47,2381.36,1087.47Zm-100.44,50.2h17.73c8.74,0,12.89-4.15,12.89-13v-17.53c0-8.88-4.15-13-12.89-13h-17.73c-8.74,0-12.89,4.11-12.89,13v17.53C2268,1133.52,2272.18,1137.67,2280.92,1137.67Zm50.2,0h17.72c8.74,0,12.89-4.15,12.89-13v-17.53c0-8.88-4.15-13-12.89-13h-17.72c-8.74,0-12.89,4.11-12.89,13v17.53C2318.23,1133.52,2322.38,1137.67,2331.12,1137.67Zm50.24,0H2399c8.74,0,12.89-4.15,12.89-13v-17.53c0-8.88-4.15-13-12.89-13h-17.68c-8.79,0-12.94,4.11-12.94,13v17.53C2368.42,1133.52,2372.57,1137.67,2381.36,1137.67Z"/></g><g id="Semibold-M"><path d="M1983.84,1087.23h19.34c7.81,0,11.62-3.76,11.62-11.77v-19.09c0-8-3.81-11.72-11.62-11.72h-19.34c-7.86,0-11.62,3.76-11.62,11.72v19.09C1972.22,1083.47,1976,1087.23,1983.84,1087.23Zm49.76,0h19.33c7.87,0,11.63-3.76,11.63-11.77v-19.09c0-8-3.76-11.72-11.63-11.72H2033.6c-7.86,0-11.62,3.76-11.62,11.72v19.09C2022,1083.47,2025.74,1087.23,2033.6,1087.23Zm49.75,0h19.34c7.86,0,11.62-3.76,11.62-11.77v-19.09c0-8-3.76-11.72-11.62-11.72h-19.34c-7.86,0-11.62,3.76-11.62,11.72v19.09C2071.73,1083.47,2075.49,1087.23,2083.35,1087.23ZM1983.84,1137h19.34c7.81,0,11.62-3.76,11.62-11.77v-19c0-8-3.81-11.77-11.62-11.77h-19.34c-7.86,0-11.62,3.76-11.62,11.77v19C1972.22,1133.23,1976,1137,1983.84,1137Zm49.76,0h19.33c7.87,0,11.63-3.76,11.63-11.77v-19c0-8-3.76-11.77-11.63-11.77H2033.6c-7.86,0-11.62,3.76-11.62,11.77v19C2022,1133.23,2025.74,1137,2033.6,1137Zm49.75,0h19.34c7.86,0,11.62-3.76,11.62-11.77v-19c0-8-3.76-11.77-11.62-11.77h-19.34c-7.86,0-11.62,3.76-11.62,11.77v19C2071.73,1133.23,2075.49,1137,2083.35,1137Z"/></g><g id="Medium-M"><path d="M1686.84,1087h20.55c7.13,0,10.65-3.47,10.65-10.8V1056c0-7.32-3.52-10.79-10.65-10.79h-20.55c-7.18,0-10.65,3.47-10.65,10.79v20.26C1676.19,1083.57,1679.66,1087,1686.84,1087Zm49.41,0h20.61c7.12,0,10.59-3.47,10.59-10.8V1056c0-7.32-3.47-10.79-10.59-10.79h-20.61c-7.13,0-10.64,3.47-10.64,10.79v20.26C1725.61,1083.57,1729.12,1087,1736.25,1087Zm49.41,0h20.61c7.13,0,10.64-3.47,10.64-10.8V1056c0-7.32-3.51-10.79-10.64-10.79h-20.61c-7.13,0-10.59,3.47-10.59,10.79v20.26C1775.07,1083.57,1778.53,1087,1785.66,1087Zm-98.82,49.41h20.55c7.13,0,10.65-3.47,10.65-10.79v-20.27c0-7.32-3.52-10.79-10.65-10.79h-20.55c-7.18,0-10.65,3.47-10.65,10.79v20.27C1676.19,1133,1679.66,1136.45,1686.84,1136.45Zm49.41,0h20.61c7.12,0,10.59-3.47,10.59-10.79v-20.27c0-7.32-3.47-10.79-10.59-10.79h-20.61c-7.13,0-10.64,3.47-10.64,10.79v20.27C1725.61,1133,1729.12,1136.45,1736.25,1136.45Zm49.41,0h20.61c7.13,0,10.64-3.47,10.64-10.79v-20.27c0-7.32-3.51-10.79-10.64-10.79h-20.61c-7.13,0-10.59,3.47-10.59,10.79v20.27C1775.07,1133,1778.53,1136.45,1785.66,1136.45Z"/></g><g id="Regular-M"><path d="M1408.67,1062.16h22.26c6.21,0,9.33-3.13,9.33-9.57v-21.83c0-6.44-3.12-9.52-9.33-9.52h-22.26c-6.2,0-9.33,3.08-9.33,9.52v21.83C1399.34,1059,1402.47,1062.16,1408.67,1062.16Zm57.86,40.92h22.26c6.2,0,9.33-3.13,9.33-9.58v-21.82c0-6.45-3.13-9.52-9.33-9.52h-22.26c-6.2,0-9.33,3.07-9.33,9.52v21.82C1457.2,1100,1460.33,1103.08,1466.53,1103.08Zm0,49h22.26c6.2,0,9.33-3.08,9.33-9.52v-21.88c0-6.39-3.13-9.52-9.33-9.52h-22.26c-6.2,0-9.33,3.13-9.33,9.52v21.88C1457.2,1149,1460.33,1152.05,1466.53,1152.05Z"/><path class="cls-12" d="M1419.8,1041.7v83.73a5.64,5.64,0,0,0,1.34,4.43,5.48,5.48,0,0,0,3.59,1.73h52.93"/><line class="cls-12" x1="1477.66" y1="1082.62" x2="1419.8" y2="1082.62"/></g><g id="Light-M"><path d="M1093,1086.64h23.39c5.52,0,8.3-2.68,8.3-8.44v-23.1c0-5.81-2.78-8.49-8.3-8.49H1093c-5.47,0-8.3,2.68-8.3,8.49v23.1C1084.72,1084,1087.55,1086.64,1093,1086.64Zm48.44,0h23.34c5.52,0,8.35-2.68,8.35-8.44v-23.1c0-5.81-2.83-8.49-8.35-8.49h-23.34c-5.52,0-8.35,2.68-8.35,8.49v23.1C1133.11,1084,1135.94,1086.64,1141.46,1086.64Zm48.39,0h23.34c5.52,0,8.35-2.68,8.35-8.44v-23.1c0-5.81-2.83-8.49-8.35-8.49h-23.34c-5.52,0-8.3,2.68-8.3,8.49v23.1C1181.55,1084,1184.33,1086.64,1189.85,1086.64ZM1093,1135h23.39c5.52,0,8.3-2.68,8.3-8.44v-23.1c0-5.76-2.78-8.45-8.3-8.45H1093c-5.47,0-8.3,2.69-8.3,8.45v23.1C1084.72,1132.35,1087.55,1135,1093,1135Zm48.44,0h23.34c5.52,0,8.35-2.68,8.35-8.44v-23.1c0-5.76-2.83-8.45-8.35-8.45h-23.34c-5.52,0-8.35,2.69-8.35,8.45v23.1C1133.11,1132.35,1135.94,1135,1141.46,1135Zm48.39,0h23.34c5.52,0,8.35-2.68,8.35-8.44v-23.1c0-5.76-2.83-8.45-8.35-8.45h-23.34c-5.52,0-8.3,2.69-8.3,8.45v23.1C1181.55,1132.35,1184.33,1135,1189.85,1135Z"/></g><g id="Thin-M"><path d="M796.39,1086.45h24.85c4.54,0,7-2.1,7-7v-24.76c0-4.88-2.44-7-7-7H796.39c-4.54,0-7,2.15-7,7v24.76C789.41,1084.35,791.85,1086.45,796.39,1086.45Zm47.6,0h24.86c4.54,0,7-2.1,7-7v-24.76c0-4.88-2.44-7-7-7H844c-4.54,0-7,2.15-7,7v24.76C837,1084.35,839.45,1086.45,844,1086.45Zm47.61,0h24.86c4.59,0,7-2.1,7-7v-24.76c0-4.88-2.39-7-7-7H891.6c-4.54,0-7,2.15-7,7v24.76C884.62,1084.35,887.06,1086.45,891.6,1086.45Zm-95.21,47.61h24.85c4.54,0,7-2.1,7-7v-24.76c0-4.88-2.44-7-7-7H796.39c-4.54,0-7,2.15-7,7V1127C789.41,1132,791.85,1134.06,796.39,1134.06Zm47.6,0h24.86c4.54,0,7-2.1,7-7v-24.76c0-4.88-2.44-7-7-7H844c-4.54,0-7,2.15-7,7V1127C837,1132,839.45,1134.06,844,1134.06Zm47.61,0h24.86c4.59,0,7-2.1,7-7v-24.76c0-4.88-2.39-7-7-7H891.6c-4.54,0-7,2.15-7,7V1127C884.62,1132,887.06,1134.06,891.6,1134.06Z"/></g><g id="Ultralight-M"><path d="M499.7,1086.35h25.64c4,0,6.29-1.81,6.29-6.3v-25.58c0-4.5-2.24-6.3-6.29-6.3H499.7c-4.05,0-6.3,1.8-6.3,6.3v25.58C493.4,1084.54,495.65,1086.35,499.7,1086.35Zm47.22,0H572.5c4.11,0,6.35-1.81,6.35-6.3v-25.58c0-4.5-2.24-6.3-6.35-6.3H546.92c-4.1,0-6.3,1.8-6.3,6.3v25.58C540.62,1084.54,542.82,1086.35,546.92,1086.35Zm47.21,0h25.59c4.1,0,6.3-1.81,6.3-6.3v-25.58c0-4.5-2.2-6.3-6.3-6.3H594.13c-4.1,0-6.29,1.8-6.29,6.3v25.58C587.84,1084.54,590,1086.35,594.13,1086.35Zm-94.43,47.22h25.64c4,0,6.29-1.86,6.29-6.3v-25.64c0-4.44-2.24-6.25-6.29-6.25H499.7c-4.05,0-6.3,1.81-6.3,6.25v25.64C493.4,1131.71,495.65,1133.57,499.7,1133.57Zm47.22,0H572.5c4.11,0,6.35-1.86,6.35-6.3v-25.64c0-4.44-2.24-6.25-6.35-6.25H546.92c-4.1,0-6.3,1.81-6.3,6.25v25.64C540.62,1131.71,542.82,1133.57,546.92,1133.57Zm47.21,0h25.59c4.1,0,6.3-1.86,6.3-6.3v-25.64c0-4.44-2.2-6.25-6.3-6.25H594.13c-4.1,0-6.29,1.81-6.29,6.25v25.64C587.84,1131.71,590,1133.57,594.13,1133.57Z"/></g><g id="Black-S"><path d="M2887.94,658.7h10.45c8.79,0,12.79-4,12.79-12.8V635.45c0-8.79-4-12.79-12.79-12.79h-10.45c-8.79,0-12.79,4-12.79,12.79V645.9C2875.15,654.69,2879.15,658.7,2887.94,658.7Zm40.23,0h10.45c8.79,0,12.8-4,12.8-12.8V635.45c0-8.79-4-12.79-12.8-12.79h-10.45c-8.79,0-12.79,4-12.79,12.79V645.9C2915.38,654.69,2919.38,658.7,2928.17,658.7Zm40.24,0h10.45c8.79,0,12.79-4,12.79-12.8V635.45c0-8.79-4-12.79-12.79-12.79h-10.45c-8.79,0-12.8,4-12.8,12.79V645.9C2955.61,654.69,2959.62,658.7,2968.41,658.7Zm-80.47,40.23h10.45c8.79,0,12.79-4,12.79-12.79V675.69c0-8.79-4-12.8-12.79-12.8h-10.45c-8.79,0-12.79,4-12.79,12.8v10.45C2875.15,694.93,2879.15,698.93,2887.94,698.93Zm40.23,0h10.45c8.79,0,12.8-4,12.8-12.79V675.69c0-8.79-4-12.8-12.8-12.8h-10.45c-8.79,0-12.79,4-12.79,12.8v10.45C2915.38,694.93,2919.38,698.93,2928.17,698.93Zm40.24,0h10.45c8.79,0,12.79-4,12.79-12.79V675.69c0-8.79-4-12.8-12.79-12.8h-10.45c-8.79,0-12.8,4-12.8,12.8v10.45C2955.61,694.93,2959.62,698.93,2968.41,698.93Z"/></g><g id="Heavy-S"><path d="M2590.84,658.45h12c8,0,11.62-3.66,11.62-11.67V634.92c0-8-3.66-11.67-11.62-11.67h-12c-8,0-11.62,3.71-11.62,11.67v11.86C2579.22,654.79,2582.88,658.45,2590.84,658.45Zm39.84,0h12c8,0,11.62-3.66,11.62-11.67V634.92c0-8-3.66-11.67-11.62-11.67h-12c-7.91,0-11.62,3.71-11.62,11.67v11.86C2619.06,654.79,2622.77,658.45,2630.68,658.45Zm39.89,0h12c7.95,0,11.62-3.66,11.62-11.67V634.92c0-8-3.67-11.67-11.62-11.67h-12c-8,0-11.62,3.71-11.62,11.67v11.86C2659,654.79,2662.61,658.45,2670.57,658.45Zm-79.73,39.89h12c8,0,11.62-3.71,11.62-11.67V674.81c0-8-3.66-11.67-11.62-11.67h-12c-8,0-11.62,3.66-11.62,11.67v11.86C2579.22,694.63,2582.88,698.34,2590.84,698.34Zm39.84,0h12c8,0,11.62-3.71,11.62-11.67V674.81c0-8-3.66-11.67-11.62-11.67h-12c-7.91,0-11.62,3.66-11.62,11.67v11.86C2619.06,694.63,2622.77,698.34,2630.68,698.34Zm39.89,0h12c7.95,0,11.62-3.71,11.62-11.67V674.81c0-8-3.67-11.67-11.62-11.67h-12c-8,0-11.62,3.66-11.62,11.67v11.86C2659,694.63,2662.61,698.34,2670.57,698.34Z"/></g><g id="Bold-S"><path d="M2293.69,658.21h13.67c7,0,10.3-3.32,10.3-10.4V634.33c0-7.08-3.32-10.4-10.3-10.4h-13.67c-7,0-10.3,3.32-10.3,10.4v13.48C2283.39,654.89,2286.71,658.21,2293.69,658.21Zm39.45,0h13.67c7,0,10.31-3.32,10.31-10.4V634.33c0-7.08-3.32-10.4-10.31-10.4h-13.67c-7,0-10.3,3.32-10.3,10.4v13.48C2322.84,654.89,2326.16,658.21,2333.14,658.21Zm39.45,0h13.68c7,0,10.3-3.32,10.3-10.4V634.33c0-7.08-3.32-10.4-10.3-10.4h-13.68c-7,0-10.3,3.32-10.3,10.4v13.48C2362.29,654.89,2365.61,658.21,2372.59,658.21Zm-78.9,39.45h13.67c7,0,10.3-3.32,10.3-10.4V673.78c0-7.08-3.32-10.4-10.3-10.4h-13.67c-7,0-10.3,3.32-10.3,10.4v13.48C2283.39,694.34,2286.71,697.66,2293.69,697.66Zm39.45,0h13.67c7,0,10.31-3.32,10.31-10.4V673.78c0-7.08-3.32-10.4-10.31-10.4h-13.67c-7,0-10.3,3.32-10.3,10.4v13.48C2322.84,694.34,2326.16,697.66,2333.14,697.66Zm39.45,0h13.68c7,0,10.3-3.32,10.3-10.4V673.78c0-7.08-3.32-10.4-10.3-10.4h-13.68c-7,0-10.3,3.32-10.3,10.4v13.48C2362.29,694.34,2365.61,697.66,2372.59,697.66Z"/></g><g id="Semibold-S"><path d="M1996.66,658h14.84c6.35,0,9.38-3.07,9.38-9.52V633.94c0-6.49-3-9.52-9.38-9.52h-14.84c-6.35,0-9.37,3-9.37,9.52v14.55C1987.29,654.94,1990.31,658,1996.66,658Zm39.21,0h14.79c6.35,0,9.43-3.07,9.43-9.52V633.94c0-6.49-3.08-9.52-9.43-9.52h-14.79c-6.35,0-9.42,3-9.42,9.52v14.55C2026.45,654.94,2029.52,658,2035.87,658Zm39.16,0h14.84c6.35,0,9.38-3.07,9.38-9.52V633.94c0-6.49-3-9.52-9.38-9.52H2075c-6.35,0-9.42,3-9.42,9.52v14.55C2065.61,654.94,2068.68,658,2075,658Zm-78.37,39.16h14.84c6.35,0,9.38-3,9.38-9.52V673.1c0-6.45-3-9.52-9.38-9.52h-14.84c-6.35,0-9.37,3.07-9.37,9.52v14.55C1987.29,694.14,1990.31,697.17,1996.66,697.17Zm39.21,0h14.79c6.35,0,9.43-3,9.43-9.52V673.1c0-6.45-3.08-9.52-9.43-9.52h-14.79c-6.35,0-9.42,3.07-9.42,9.52v14.55C2026.45,694.14,2029.52,697.17,2035.87,697.17Zm39.16,0h14.84c6.35,0,9.38-3,9.38-9.52V673.1c0-6.45-3-9.52-9.38-9.52H2075c-6.35,0-9.42,3.07-9.42,9.52v14.55C2065.61,694.14,2068.68,697.17,2075,697.17Z"/></g><g id="Medium-S"><path d="M1699.73,657.87h15.72c5.86,0,8.69-2.89,8.69-8.84V633.6c0-6-2.83-8.84-8.69-8.84h-15.72c-5.86,0-8.69,2.88-8.69,8.84V649C1691,655,1693.87,657.87,1699.73,657.87Zm39,0h15.72c5.86,0,8.7-2.89,8.7-8.84V633.6c0-6-2.84-8.84-8.7-8.84h-15.72c-5.86,0-8.69,2.88-8.69,8.84V649C1730,655,1732.83,657.87,1738.69,657.87Zm39,0h15.72c5.86,0,8.69-2.89,8.69-8.84V633.6c0-6-2.83-8.84-8.69-8.84h-15.72c-5.86,0-8.69,2.88-8.69,8.84V649C1769,655,1771.8,657.87,1777.66,657.87Zm-77.93,39h15.72c5.86,0,8.69-2.88,8.69-8.84V672.56c0-5.95-2.83-8.84-8.69-8.84h-15.72c-5.86,0-8.69,2.89-8.69,8.84V688C1691,694,1693.87,696.83,1699.73,696.83Zm39,0h15.72c5.86,0,8.7-2.88,8.7-8.84V672.56c0-5.95-2.84-8.84-8.7-8.84h-15.72c-5.86,0-8.69,2.89-8.69,8.84V688C1730,694,1732.83,696.83,1738.69,696.83Zm39,0h15.72c5.86,0,8.69-2.88,8.69-8.84V672.56c0-5.95-2.83-8.84-8.69-8.84h-15.72c-5.86,0-8.69,2.89-8.69,8.84V688C1769,694,1771.8,696.83,1777.66,696.83Z"/></g><g id="Regular-S"><path d="M1402.75,657.72h16.84c5.23,0,7.82-2.64,7.82-8v-16.5c0-5.37-2.59-8-7.82-8h-16.84c-5.23,0-7.81,2.64-7.81,8v16.5C1394.94,655.08,1397.52,657.72,1402.75,657.72Zm38.67,0h16.85c5.22,0,7.81-2.64,7.81-8v-16.5c0-5.37-2.59-8-7.81-8h-16.85c-5.22,0-7.81,2.64-7.81,8v16.5C1433.61,655.08,1436.2,657.72,1441.42,657.72Zm38.67,0H1497c5.17,0,7.76-2.64,7.76-8v-16.5c0-5.37-2.59-8-7.76-8h-16.9c-5.22,0-7.81,2.64-7.81,8v16.5C1472.28,655.08,1474.87,657.72,1480.09,657.72Zm-77.34,38.67h16.84c5.23,0,7.82-2.64,7.82-8v-16.5c0-5.37-2.59-8-7.82-8h-16.84c-5.23,0-7.81,2.59-7.81,8v16.5C1394.94,693.75,1397.52,696.39,1402.75,696.39Zm38.67,0h16.85c5.22,0,7.81-2.64,7.81-8v-16.5c0-5.37-2.59-8-7.81-8h-16.85c-5.22,0-7.81,2.59-7.81,8v16.5C1433.61,693.75,1436.2,696.39,1441.42,696.39Zm38.67,0H1497c5.17,0,7.76-2.64,7.76-8v-16.5c0-5.37-2.59-8-7.76-8h-16.9c-5.22,0-7.81,2.59-7.81,8v16.5C1472.28,693.75,1474.87,696.39,1480.09,696.39Z"/></g><g id="Light-S"><path d="M1106,657.57h17.87c4.59,0,6.94-2.24,6.94-7V632.91c0-4.78-2.35-7-6.94-7H1106c-4.54,0-6.88,2.25-6.88,7v17.63C1099.13,655.33,1101.47,657.57,1106,657.57Zm38.18,0h17.88c4.58,0,6.88-2.24,6.88-7V632.91c0-4.78-2.3-7-6.88-7h-17.88c-4.59,0-6.93,2.25-6.93,7v17.63C1137.26,655.33,1139.6,657.57,1144.19,657.57Zm38.14,0h17.87c4.59,0,6.93-2.24,6.93-7V632.91c0-4.78-2.34-7-6.93-7h-17.87c-4.59,0-6.89,2.25-6.89,7v17.63C1175.44,655.33,1177.74,657.57,1182.33,657.57ZM1106,695.71h17.87c4.59,0,6.94-2.25,6.94-7V671.1c0-4.79-2.35-7-6.94-7H1106c-4.54,0-6.88,2.24-6.88,7v17.58C1099.13,693.46,1101.47,695.71,1106,695.71Zm38.18,0h17.88c4.58,0,6.88-2.25,6.88-7V671.1c0-4.79-2.3-7-6.88-7h-17.88c-4.59,0-6.93,2.24-6.93,7v17.58C1137.26,693.46,1139.6,695.71,1144.19,695.71Zm38.14,0h17.87c4.59,0,6.93-2.25,6.93-7V671.1c0-4.79-2.34-7-6.93-7h-17.87c-4.59,0-6.89,2.24-6.89,7v17.58C1175.44,693.46,1177.74,695.71,1182.33,695.71Z"/></g><g id="Thin-S"><path d="M809.35,657.43h19.19c3.76,0,5.76-1.76,5.76-5.77V632.57c0-4-2-5.81-5.76-5.81H809.35c-3.71,0-5.71,1.81-5.71,5.81v19.09C803.64,655.67,805.64,657.43,809.35,657.43Zm37.45,0H866c3.76,0,5.76-1.76,5.76-5.77V632.57c0-4-2-5.81-5.76-5.81H846.8c-3.71,0-5.71,1.81-5.71,5.81v19.09C841.09,655.67,843.09,657.43,846.8,657.43Zm37.45,0h19.19c3.76,0,5.76-1.76,5.76-5.77V632.57c0-4-2-5.81-5.76-5.81H884.25c-3.71,0-5.71,1.81-5.71,5.81v19.09C878.54,655.67,880.54,657.43,884.25,657.43Zm-74.9,37.45h19.19c3.76,0,5.76-1.76,5.76-5.76V670c0-4-2-5.81-5.76-5.81H809.35c-3.71,0-5.71,1.81-5.71,5.81v19.1C803.64,693.12,805.64,694.88,809.35,694.88Zm37.45,0H866c3.76,0,5.76-1.76,5.76-5.76V670c0-4-2-5.81-5.76-5.81H846.8c-3.71,0-5.71,1.81-5.71,5.81v19.1C841.09,693.12,843.09,694.88,846.8,694.88Zm37.45,0h19.19c3.76,0,5.76-1.76,5.76-5.76V670c0-4-2-5.81-5.76-5.81H884.25c-3.71,0-5.71,1.81-5.71,5.81v19.1C878.54,693.12,880.54,694.88,884.25,694.88Z"/></g><g id="Ultralight-S"><path d="M512.69,657.33h19.87c3.32,0,5.13-1.52,5.13-5.13V632.38c0-3.62-1.81-5.13-5.13-5.13H512.69c-3.32,0-5.13,1.51-5.13,5.13V652.2C507.56,655.81,509.37,657.33,512.69,657.33Zm37.11,0h19.82c3.32,0,5.13-1.52,5.13-5.13V632.38c0-3.62-1.81-5.13-5.13-5.13H549.8c-3.32,0-5.13,1.51-5.13,5.13V652.2C544.67,655.81,546.48,657.33,549.8,657.33Zm37.06,0h19.87c3.32,0,5.13-1.52,5.13-5.13V632.38c0-3.62-1.81-5.13-5.13-5.13H586.86c-3.32,0-5.13,1.51-5.13,5.13V652.2C581.73,655.81,583.54,657.33,586.86,657.33Zm-74.17,37.11h19.87c3.32,0,5.13-1.52,5.13-5.13V669.49c0-3.62-1.81-5.13-5.13-5.13H512.69c-3.32,0-5.13,1.51-5.13,5.13v19.82C507.56,692.92,509.37,694.44,512.69,694.44Zm37.11,0h19.82c3.32,0,5.13-1.52,5.13-5.13V669.49c0-3.62-1.81-5.13-5.13-5.13H549.8c-3.32,0-5.13,1.51-5.13,5.13v19.82C544.67,692.92,546.48,694.44,549.8,694.44Zm37.06,0h19.87c3.32,0,5.13-1.52,5.13-5.13V669.49c0-3.62-1.81-5.13-5.13-5.13H586.86c-3.32,0-5.13,1.51-5.13,5.13v19.82C581.73,692.92,583.54,694.44,586.86,694.44Z"/></g></g></svg>